<svg id="Capa_1" enable-background="new 0 0 512 512" height="512" viewBox="0 0 512 512" width="512" xmlns="http://www.w3.org/2000/svg"><g><path d="m216.776 401.884-.381.072-23.158 4.09-21.088 3.729c-9.066-22.252-62.47-30.277-94.725-56.217-31.771-25.549-28.567-69.764-26.651-97.465 1.36-19.573-3.863-33.841-9.612-43.35-1.277-2.122-1.422-4.389-.783-6.367 1.205-3.74 5.223-6.439 9.694-5.099 20.748 6.202 39.579 19.975 46.276 33.079 16.854 32.955-7.005 74.328 49.789 92.551 1.339.433 2.648.876 3.935 1.36 53.497 19.512 66.704 73.617 66.704 73.617z" fill="#97da7b"/><path d="m216.776 401.884-.381.072-23.158 4.09c-20.418-17.915-33.893-39.487-39.775-58.442-1.236-3.966-3.75-7.417-7.232-9.673-6.892-4.471-14.567-8.283-23.117-11.023-56.794-18.224-32.925-59.596-49.778-92.551-5.223-10.219-17.822-20.83-32.945-27.959 0-.01-.01-.01-.01-.021 1.205-3.74 5.223-6.439 9.694-5.099 20.748 6.202 39.579 19.975 46.276 33.079 16.854 32.955-7.005 74.328 49.789 92.551 1.339.433 2.648.876 3.935 1.36 53.495 19.511 66.702 73.616 66.702 73.616z" fill="#80d261"/><path d="m121.689.609c-6.43-2.653-12.842 3.842-10.099 10.234 8.517 19.848 20.814 53.58 20.05 81.423-.939 34.198-16.276 66.743 0 99.295s52.316 45.579 52.316 75.105-31.612 84.096 31.291 135.369l30.799 13.531 23.873-13.7s-18.534-75.448-9.233-128.926-13.951-95.331-37.202-113.932-2.325-54.189-22.089-97.43c-13.723-30.021-55.467-50.968-79.706-60.969z" fill="#97da7b"/><g><path d="m252.225 280.669c-1.473 0-2.962-.421-4.279-1.299-3.55-2.367-4.51-7.164-2.143-10.714 19.608-29.41 20.159-91.037 20.488-127.858.059-6.546.11-12.2.25-17.098 1.055-36.954 28.747-59.755 29.926-60.707 3.32-2.681 8.184-2.165 10.866 1.152 2.678 3.313 2.168 8.167-1.136 10.852-.294.242-23.362 19.489-24.209 49.144-.136 4.746-.186 10.33-.243 16.795-.367 41.036-.923 103.051-23.083 136.292-1.49 2.233-3.94 3.441-6.437 3.441z" fill="#80d261"/></g><path d="m260.685 272.941c9.301-53.478-13.951-95.331-37.202-113.932s-2.325-54.189-22.089-97.43c-13.722-30.023-55.466-50.97-79.705-60.971-5.261-2.17-10.501 1.783-10.735 6.792 23.719 11.409 53.333 29.802 64.474 54.179 19.764 43.241-1.162 78.829 22.089 97.43s46.503 60.454 37.202 113.932 10.359 132.57 10.359 132.57l24.84-3.645c0 .001-18.533-75.446-9.233-128.925z" fill="#80d261"/><g><path d="m237.907 413.669c-2.512 0-4.976-1.223-6.461-3.479-1.266-1.923-30.928-47.69-24.448-100.008 5.779-46.645 1.905-63.684-5.159-86.204-4.301-13.709-11.664-19.618-19.46-25.872-7.376-5.92-15.736-12.628-19.442-25.561-1.175-4.102 1.197-8.38 5.3-9.555 4.097-1.174 8.379 1.197 9.555 5.3 2.352 8.211 7.607 12.427 14.258 17.765 8.387 6.729 18.825 15.105 24.533 33.299 8.545 27.24 11.403 47.094 5.751 92.729-5.789 46.733 21.607 89.363 21.885 89.786 2.346 3.563 1.493 8.181-2.071 10.528-1.309.859-2.784 1.272-4.241 1.272z" fill="#80d261"/></g><g><path d="m169.418 137.726c-4.236 0-7.688-3.414-7.725-7.659-.131-15.042-2.241-26.757-6.275-34.819-1.909-3.816-.363-8.458 3.453-10.366 3.82-1.91 8.458-.363 10.366 3.453 5.168 10.329 7.755 23.937 7.908 41.598.037 4.268-3.392 7.757-7.659 7.794-.023-.001-.046-.001-.068-.001z" fill="#80d261"/></g><g><path d="m110.361 445.725c-.119 0-.238-.003-.358-.008-38.434-1.756-52.328-24.216-64.261-49.078-8.874-18.489-31.104-23.291-31.327-23.337-4.178-.866-6.863-4.956-5.997-9.134s4.958-6.86 9.134-5.997c1.218.253 29.976 6.478 42.122 31.782 10.918 22.747 20.969 38.955 51.033 40.328 4.264.195 7.561 3.808 7.366 8.07-.189 4.143-3.607 7.374-7.712 7.374z" fill="#97da7b"/></g><path d="m493.38 285.487c6.604-2.337 12.691 4.635 9.481 10.861-3.979 7.717-7.902 17.147-8.869 25.714-1.708 15.145 3.038 30.454-6.162 43.805-9.201 13.35-25.908 16.861-27.741 29.886-1.832 13.026 8.718 38.985-22.214 57.7l-24.1-3.39s12.859-32.134 12.075-56.304 12.071-41.19 23.483-47.953 4.389-23.761 15.791-41.611c5.763-9.023 17.78-15.002 28.256-18.708z" fill="#d9b1ee"/><path d="m493.38 285.487c-3.947 1.397-8.112 3.116-12.08 5.199.516 1.763.414 3.747-.573 5.662-3.978 7.717-7.902 17.147-8.869 25.714-1.708 15.145 3.038 30.454-6.162 43.805-9.2 13.35-25.908 16.861-27.74 29.886-1.75 12.441 7.793 36.68-18.298 55.138l18.218 2.563c30.932-18.716 20.381-44.674 22.214-57.7s18.54-16.536 27.741-29.886c9.2-13.351 4.454-28.66 6.162-43.805.966-8.567 4.89-17.996 8.869-25.714 3.209-6.228-2.878-13.199-9.482-10.862z" fill="#cb97e7"/><path d="m484.275 512h-458.395c-8.093 0-11.757-10.118-5.541-15.301l48.071-40.074c42.441-35.381 95.946-54.758 151.2-54.758h70.936c55.254 0 108.759 19.377 151.2 54.758l48.071 40.074c6.216 5.183 2.551 15.301-5.542 15.301z" fill="#fed2a4"/><path d="m441.746 456.625c-42.441-35.381-95.946-54.758-151.2-54.758h-64.649c55.255 0 108.759 19.377 151.2 54.758l54.048 45.057c3.624 3.021 2.507 8.85-1.977 10.317h55.107c8.093 0 11.757-10.118 5.541-15.301z" fill="#ffbd86"/><g><path d="m205.16 476.493c-2.128 0-4.245-.873-5.772-2.587-2.839-3.186-2.557-8.07.629-10.908l17.074-15.211c9.005-8.021 20.605-12.439 32.663-12.439h49.274l-6.861 15.453h-42.413c-8.264 0-16.213 3.027-22.384 8.524l-17.073 15.21c-1.473 1.313-3.309 1.958-5.137 1.958z" fill="#97da7b"/></g><path d="m450.493 59.781c-8.509 19.841-20.81 53.58-20.047 81.415.938 34.202 16.277 66.745 0 99.299s-52.313 45.575-52.313 75.1c0 27.849 26.114 68.684-23.413 117.278-5.752 5.644-25.829 17.927-33.888 17.927l-6.14-6.035-10.959 6.03h-11.569s18.533-75.44 9.241-128.917c-9.303-53.487 13.949-95.333 37.2-113.938s2.328-54.188 22.087-97.424c13.722-30.03 55.465-50.973 79.705-60.976 6.428-2.646 12.846 3.844 10.096 10.241z" fill="#97da7b"/><path d="m440.422 49.533c-4.565 1.883-9.751 4.155-15.255 6.802.052 1.114-.137 2.279-.636 3.442-8.517 19.848-20.814 53.58-20.05 81.423.939 34.198 16.276 66.743 0 99.295s-52.316 45.579-52.316 75.105 31.569 83.928-31.333 135.201h14.288c8.059 0 15.8-3.165 21.552-8.809 49.525-48.596 21.458-98.552 21.458-126.392 0-29.526 36.04-42.553 52.316-75.105s.939-65.097 0-99.295c-.764-27.846 11.536-61.583 20.053-81.429 2.744-6.393-3.647-12.891-10.077-10.238z" fill="#80d261"/><g><path d="m396.892 139.94c-5.388 10.755-7.324 27.959-5.748 51.118 1.968 29.031-10.364 38.931-21.242 47.656-7.798 6.253-15.164 12.167-19.46 25.878-7.067 22.52-10.941 39.559-5.161 86.206 6.48 52.313-23.179 98.084-24.446 100h-17.101c.268-.412 31.977-51.55 26.208-98.104-5.656-45.637-2.792-65.489 5.759-92.727 5.707-18.193 16.143-26.568 24.529-33.306 10.188-8.169 16.926-13.578 15.504-34.563-1.793-26.301.608-45.627 7.345-59.081 1.906-3.812 6.542-5.357 10.364-3.451 3.81 1.916 5.355 6.552 3.449 10.374z" fill="#80d261"/></g><g fill="#ffbd86"><circle cx="369.979" cy="482.88" r="7.726"/><circle cx="115.384" cy="482.876" r="7.726"/><circle cx="140.171" cy="463.647" r="7.726"/></g></g></svg>