<svg id="Layer_1" enable-background="new 0 0 500 500" viewBox="0 0 500 500" xmlns="http://www.w3.org/2000/svg"><g><path d="m163.632 278.52s-26.942-9.921-36.997 3.52c-10.055 13.44 14.565 27.198 14.565 27.198l23.8-15.946z" fill="#55a142"/><path d="m393.501 232.101c-27.364 22.255-58.427 62.593-102.467 89.017-43.979 26.424-92.188 18.086-106.105 20.847-13.917 2.758-29.185 12.154-50.264 6.282-19.437-5.344-18.496-55.021-18.261-63.063.47 17.498 3.406 47.386 18.261 51.495 21.079 5.814 36.347-3.521 50.264-6.34 13.917-2.761 62.126 5.577 106.105-20.847 44.04-26.424 75.102-66.765 102.467-89.017 20.844-16.913 74.397-44.628 80.094-78.918 6.46 39.635-57.019 71.752-80.094 90.544z" fill="#55a142"/><path d="m432.61 132.57c-8.694-14.737-51.44-21.61-87.669-8.983 1.293-.941 15.09-10.746 33.763-18.029 33.881-1.703 62.771 10.394 53.906 27.012z" fill="#55a142"/><path d="m473.595 141.556c-5.697 34.291-59.25 62.005-80.094 78.918-27.364 22.252-58.427 62.593-102.467 89.017-43.979 26.424-92.188 18.086-106.105 20.847-9.336 1.878-19.259 6.692-31.123 7.928-5.872.585-12.154.35-19.141-1.588-14.035-3.874-17.438-30.828-18.143-48.559-.06-1.001-.118-1.999-.118-2.936v-.235c.057-.588.057-.883.057-.883s19.319-.997 25.369.883c5.989 1.878 6.927-3.349 14.327-3.994 7.458-.645 26.894-37.287 67.702-54.433 40.811-17.146 98.708-19.436 123.311-26.833 24.546-7.458 72.754-32.944 85.261-55.196 2.408-4.346 2.291-8.34.178-11.921 8.865-16.618-20.024-28.715-53.906-27.012 25.309-9.806 59.542-14.915 83.558 13.33 6.635 7.809 10.219 15.384 11.334 22.667z" fill="#8ac87f"/><path d="m153.806 338.266c-5.872.585-12.154.35-19.141-1.588-14.035-3.874-17.438-30.828-18.143-48.559 9.923-2.821 22.725 1.35 30.357 8.808 9.101 8.866 15.971 22.901 6.927 41.339z" fill="#55a142"/><path d="m192.813 334.943c-2.015 10.378 10.398 15.574 15.197 23.573 4.8 7.999-23.196 17.597-29.595 21.597-6.399 3.999-24.396 9.998-22.796 11.598s13.998-.4 14.398 0-9.999 9.198-7.999 10.398 13.998-9.198 15.197-7.199c1.2 1.999-4.799 12.798-2.4 12.798s7.199-11.198 9.998-11.198c2.8 0-.8 10.398 3.2 11.198 3.999.799 3.999-11.198 7.599-14.398 3.599-3.2 13.098 6.799 12.948 4-.15-2.8-6.949-5.999-5.349-9.198 1.6-3.2 17.997-2.4 29.195-17.597s11.998-42.393-9.198-48.392c-21.197-6.001-29.688 9.175-30.395 12.82z" fill="#55a142"/><path d="m134.373 348.307c-20.377 17.263-81.915 31.473-88.842 31.12-3.877-.178-5.11-1.76-6.46-3.524-1.001-1.408-2.056-2.936-4.464-3.994-.941-.41-1.938-.82-2.876-1.233-.06 0-.118-.057-.178-.057-4.404-2.113-8.277-5.109-5.754-12.977 3.114-9.688 18.674-8.28 32.884-19.729 14.153-11.392 20.377-24.193 20.727-28.657.353-4.521 2.761-6.222 7.283-7.633 4.461-1.411 12.624-9.043 20.727-14.505 12.039-8.16 30.065 1.001 37.348 13.447 7.278 12.45 10.039 30.476-10.395 47.742z" fill="#8ac87f"/><g fill="#55a142"><path d="m36.966 366.276s2.449-11.661 7.09-9.633c4.64 2.028-1.289 10.278-7.09 9.633z"/><path d="m30.758 365.05s-3.913-9.661.445-10.453c4.359-.793 4.081 8.09-.445 10.453z"/><path d="m337.231 249.61c-3.716 2.742-6.215 6.814-6.805 11.395-1.569 12.165.979 29.485 8.383 34.729 9.081 6.432 39.728-10.193 42.377-8.502 2.648 1.691-12.108 17.582-9.838 19.474s8.585-8.702 10.157-7.567.437 13.88 3.086 13.75c2.648-.129 1.892-10.723 3.784-11.48s5.675 9.459 8.324 7.946-1.513-11.729 0-12.486c1.514-.757 4.919 6.81 7.189 4.54s-4.162-19.675-6.432-27.242-26.485-12.486-33.674-7.945c0 0 8.702-24.215-3.405-25.729-7.85-.981-17.4 4.876-23.146 9.117z"/><path d="m121.453 337.383s-4.286 4.992-4.932 9.513c-.648 4.582-43.805 19.436-54.08 24.193-6.635 3.053-16.971 4.286-23.37 4.814-1.001-1.408-2.056-2.936-4.464-3.994-.941-.41-1.938-.82-2.876-1.233 3.991 1.293 8.63 2.291 13.034 1.821 10.686-1.115 63.066-26.189 67.47-27.714 0 0 2.876-7.4 9.218-7.4z"/><path d="m100.69 328.195s2.762-10.378 8.976-12.72 15.19 2.537 15.19 2.537-3.107 7.289-11.392 10.183c-8.286 2.894-12.774 0-12.774 0z"/><path d="m391.782 101.251s11.481-12.619 15.495-7.966 10.101-2.731 14.978 1.331 13.657-3.983 16.308 2.137 11.025.214 13.313 7.182c2.287 6.968 14.908 2.354 12.647 8.654-2.261 6.299 15.484 2.662 9.073 12.314-6.41 9.652 1.283 9.906-8.878 20.006-10.161 10.101-15.505 11.612-15.505 11.612s19.969-14.676 9.652-32.133c-10.318-17.458-38.645-28.152-67.083-23.137z"/><path d="m168.305 281.699s9.749-17.538 15.197-17.252c5.448.287 9.463-14.337 15.771-12.617 6.309 1.72 12.617-13.19 18.639-11.183s14.337-11.183 20.646-7.455 14.051-9.749 20.646-7.455 15.771-7.742 21.793-6.309c6.021 1.434 19.212-6.307 21.792-3.583 2.581 2.723 18.352-7.026 21.219-4.159 2.868 2.867 14.051-8.889 20.359-6.021 6.309 2.868 21.793-6.595 21.793-6.595s-11.47 11.183-28.388 13.764-62.07 17.055-97.921 29.538-71.546 39.327-71.546 39.327z"/></g><path d="m107.294 324.628s2.46-8.022 8.07-5.299c5.609 2.722-5.101 7.919-8.07 5.299z" fill="#407e30"/><path d="m114.296 322.056c0 1.075-.872 1.947-1.947 1.947s-1.947-.872-1.947-1.947c0-1.076.872-1.947 1.947-1.947 1.075-.001 1.947.871 1.947 1.947z" fill="#3b4951"/><path d="m174.538 290.49s11.306-17.857 15.683-13.852c4.377 4.004 12.766-7.667 17.507-5.114 4.742 2.553 12.036-7.294 17.143-5.835 5.106 1.459 18.601-15.319 23.343-12.036 4.742 3.282 21.155-12.401 26.261-9.483s22.249-13.495 26.99-9.483 15.683-9.118 20.79-6.2 20.79-5.836 20.79-5.836-41.579 17.142-73.676 31.732c-32.097 14.588-83.524 29.906-94.831 36.107z" fill="#55a142"/><path d="m227.163 285.559s9.031 4.766 8.529 10.034 6.181.251 4.47 8.529 13.34 7.275 9.326 13.044c-4.014 5.77-3.512 12.315-3.512 12.315s10.786-10.448 7.526-14.642c-3.261-4.195 1.299-8.209-6.021-9.463s1.003-12.543-4.014-11.539.674-6.548-6.522-6.604c-7.195-.057-9.782-1.674-9.782-1.674z" fill="#55a142"/><path d="m245.426 279.171s9.536 4.571 9.645 10.671 6.18-.331 5.434 9.349c-.747 9.679 14.113 7.021 10.786 14.049s-2.071 14.497-2.071 14.497 9.525-13.079 5.796-17.571.344-9.559-7.083-10.267c-7.428-.708-.451-14.507-5.327-12.852-4.876 1.654-.086-7.589-7.253-6.933s-9.927-.943-9.927-.943z" fill="#55a142"/><path d="m263.201 270.93s9.788 4.301 10.243 10.63c.454 6.329 6.157-.631 5.958 9.453-.198 10.084 14.501 6.631 11.573 14.083-2.927 7.452-1.25 15.147-1.25 15.147s8.779-14.022 4.798-18.512-.196-9.939-7.659-10.329c-7.463-.389-1.271-15.04-6.05-13.095s-.515-7.874-7.639-6.86c-7.125 1.014-9.974-.517-9.974-.517z" fill="#55a142"/><path d="m281.654 263.248s9.106 3.422 9.833 9.149 5.563-.879 5.883 8.292 13.504 5.305 11.214 12.221-.385 13.823-.385 13.823 7.281-13.175 3.441-17.057-.671-9.021-7.471-9.004c-6.799.017-1.901-13.601-6.146-11.597s-.859-7.128-7.281-5.853c-6.424 1.276-9.088.026-9.088.026z" fill="#55a142"/><path d="m303.297 261.952s6.614 2.273 7.254 6.374 3.979-.746 4.397 5.839 9.814 3.536 8.31 8.553.007 9.942.007 9.942 4.963-9.618 2.124-12.329-.668-6.469-5.554-6.318c-4.887.151-1.645-9.736-4.655-8.208-3.01 1.527-.763-5.106-5.353-4.057-4.59 1.048-6.53.204-6.53.204z" fill="#55a142"/></g></svg>