<svg id="Layer_1" enable-background="new 0 0 75 75" viewBox="0 0 75 75" xmlns="http://www.w3.org/2000/svg"><g id="_x36_"><g><g><path d="m61.5488434 42.5054169c-.3099976 1.3099976-1.5499878.8800049-2.3099976.6500244-.75-.2200317-2.9299927-1.1000366-2.9299927-1.1000366s-.039978 1.6000366.3400269 2.0599976c.3899536.460022 1.0299683 2.0700073-.210022 2.3599854-1.2399902.3000488-2.7999878-4.5699463-3.9400024-3.5899658s-.4400024 3.9799805-2.0899658 3.8900146c-1.6500244-.0800171-.1200562-3.0200195-.7400513-3.3699951-.6199951-.3500366-1.4299927.5699463-2.8699951.5799561-1.1399536.0200195-2.0700073-.8299561-2.3999634-1.1699829-.0900269-.0900269-.1300049-.1400146-.1300049-.1400146.1587868-.5271301 1.0637703-3.9035606 1.539978-4.3499756.0200195-.0100098.0400391-.0200195.0499878-.0300293.4700317-.2399902 3.7200317-1.4299927 4.7400513-1.4799805 1.0299683-.0499878 6.0899658 0 6.0899658 0l.8300171.9799805s1.5199585 2.8200073 2.4699707 3.1600342c.9096565.3223608 1.8888474.23579 1.5599976 1.5499876z" fill="#b3cd46"/><path d="m61.6088409 41.9954071c-.3200073-.0100098-1.3899536-.2199707-2.7399902-.6199951-1.5800171-.4500122-1.7399902-2.7199707-3.9400024-2.9799805-2.2000122-.2700195-10.5299683 4.4199829-10.5299683 4.4199829.0158081-.1014595.5830383-3.7421761.5499878-3.5300293.0100098-.0999756.289978-.4899902.8599854-.9599609.0200195-.0100098.0400391-.0200195.0499878-.0300293.4700317-.2399902 3.7200317-1.4299927 4.7400513-1.4799805 1.0299683-.0499878 6.0899658 0 6.0899658 0l.8300171.9799805s1.5199585 2.8200073 2.4699707 3.1600342c.790039.2799682 1.5900268.25 1.619995 1.039978z" fill="#7da715"/><path d="m19.3351593 21.7158508s-4.7932148 1.2605553-4.3744907 3.2704315c.418725 2.0098782.8638783 2.1067314.8638783 2.1067314z" fill="#b3cd46"/><path d="m24.8888683 54.16539c-.2999878-.0799561-.6300049-.1199951-.9400024-.1399536-.8300171-.0500488-1.5999756.0799561-1.5999756.0799561s2.9899902 2.5500488 2.8199463 3.9100342v.0100098c-.0199585.1499634-.0799561.2799683-.1799927.3899536-.8837814.9971352-3.9826012-1.0835381-5.0700073-1.8599854.710022.6400146 5.8900146 5.3099976 4.5 5.8699951-.6999512.2800293-1.7699585-.0499878-2.8599854-.6400146-1.2600098-.6699829-2.5200195-1.6499634-3.2600098-2.3899536-1.3899536-1.3900146-2.999999-1.5499878-3.7999868-1.1799927-.1900024.0799561-.2799683.2599487-.3099976.4899902-.0800171.7000122.3900146 1.8599854-.1099854 2.1599731-.6600342.4000244-1.1799927-.1900024-1.4400024-1.1099854s-1.6300049-3.0800171-2.9100342-4.710022c-1.2799683-1.6199951-3.0899658-7.1799927-3.8799438-9.5-.7800293-2.3399658-.0600586-8.3999634.3099976-11.8099976.3599854-3.4099712 2.2699585-2.4999981 4.0199585-1.4599609 1.75 1.0499878 2.9800415 2.3999634 2.9800415 2.3999634 0-.8900146 1.0299683-2.5999756 1.0299683-2.5999756s6.6799917-2.2700176 7.4000235-1.8400249c.3299561.2000122.7699585 2.7100201 1.0999756 5.6799908.3900146 3.5100098.6199951 7.6500244.3200073 9.3200073-.2700195 1.5-.960022 2.4100342-1.5999756 2.9400024-.0100098.0100098-.0200195.0200195-.0300293.0200195-.6599731.5499878-1.2600098.6900024-1.2600098.6900024s4.7300415 2.5800171 5.7200317 3.9899902c.9899903 1.4000246.1399537 1.6099855-.9500122 1.2899782z" fill="#b3cd46"/><g><path d="m23.0088634 45.2353973c-.2700195 1.5-.960022 2.4100342-1.5999756 2.9400024-.0100098.0100098-.0200195.0200195-.0300293.0200195 1.2200317-1.8300171 1.1699829-4.0900269.7399902-6.0200195-.6099854-2.7199707-2.1099854-5.1699829-4.1400146-7.0799561-1.8999634-1.7800293-3.7899771-3.0200195-3.7899771-3.0200195h2.3599844s2.7900391.0999756 2.9200439.0999756c.0799561 0 1.7999878 2 3.2199707 3.7399902.3900148 3.5100099.6199952 7.6500245.3200074 9.3200074z" fill="#7da715"/><path d="m64.6688385 30.5154285s.7400513.9099731 1.2900391 2.1400127c.5999756 1.3399658.9799805 3.0499878-.0700073 4.3599854-1.3400269 1.7000122-5.5800171.7999878-10.7299805.3699951-5.1500244-.4199829-10.1000366 4.9899902-15.25 8.7000122-3.2800293 2.3699951-9.2500019 1.3699951-13.1500263.3399658-2.210022-.5899658-3.75-1.1900024-3.75-1.1900024s.5499878-1.0999756.3499756-3.5199585c-.0499878-.6500244-.1599731-1.4100342-.3499756-2.2700195-.0300293-.1300049-.0599976-.2700195-.0999756-.4100342-1.0500488-4.289978-7.4400015-6.25-8.5400381-6.6299438-.0199585-.0100098-.0299683-.0200195-.0499878-.0300293l-.0999756-.1599731c-.2400513-.6900005.4400024-3.130003 2.1799917-6.1900005 1.8699951-3.2800293 4.9500122-7.2700195 9.4299927-10.5900278 9.2399921-6.8800049 16.2600117.4800415 20.8800068-.2399902 4.6199951-.7299805 10.2099609 1.8699961 10.2099609 1.8699961s.0100098-.0100098.0200195-.0199585c.2000122-.25 2.1900024-2.5200205 4.8800049-1.6600351 1.2199707.3900146 1.7600098 1.250001 1.960022 2.1099863.2799683 1.1400146-.0200195 2.2700195-.0200195 2.2700195v.0100098c.2000122.1699829 5.3599854 4.4799805 5.7299805 6.8499756.1500243.9600218-1.7000123 2.5599974-4.8200074 3.8900144z" fill="#6aaa50"/><path d="m64.6654358 30.5108433s.744194.9159222 1.296608 2.1495533c.5981979 1.3366623.9731522 3.042572-.0686874 4.3591995-1.3395538 1.691597-5.5871201.7928467-10.7363014.3692398-5.1491852-.4207573-10.1008911 4.9860344-15.2472115 8.7012291-3.2829895 2.3670845-9.2536373 1.3681641-13.1463242.3348961-4.3076649-2.109478.4121819-3.7781754.1946468-4.6368484-.2576084-1.0075188.100172-3.9699402.5638561-4.3992767.4608173-.4264717 7.1813889-2.3928337 10.0236015-4.8057289 2.8422127-2.4100075 4.9574203-8.3606167 10.3441734-9.5942459 5.3867569-1.2307644 13.5956841 3.4890823 16.4693794 2.4128742 2.8078613-1.0533066-.4522247-5.4325447-.5982018-5.6271744.2003593.1659966 5.3552589 4.4851398 5.7302132 6.855072.151703.9531345-1.7030257 2.5559864-4.8257521 3.8812103z" fill="#4d9031"/><path d="m33.3688507 35.0054169c-.2600098.2799683-4.4400043 4.789978-4.6599751 4.960022-.2200317.1699829-2.460022 1.5999756-3.7700195 1.5999756-.6400146 0-1.0899658.1300049-1.5800171.1500244-.0499878-.6500244-.1599731-1.4100342-.3499756-2.2700195-.0300293-.1300049-.0599976-.2700195-.0999756-.4100342-1.0500488-4.289978-7.4400015-6.25-8.5400381-6.6299438-.0199585-.0100098-.0299683-.0200195-.0499878-.0300293l-.0999756-.1599731s7.3599844 1.3999634 8.6399527 3.5799561c1.25 2.1300047 10.1000386-.6699831 10.5100117-.7899782z" fill="#4d9031"/><g><path d="m65.9288483 37.1753998c-1.3399658 1.7000122-5.6199951.6400146-10.7699585.210022-5.1500244-.4199829-10.0500488 5.2600098-15.2000122 8.9699707-5.1709785 3.731369-16.8498726-1.1042366-16.9500141-1.1199951-.0999756 0-.0100098-.4299927.0700073-1.3800049.0599976-.9400024.1199951-2.3899536-.0700073-4.4099731 2.7999878-1.2000122 6.6799927-1.1400146 10.3599873-.7200317 5.3800049.6000366 10.3500366 1.9400024 10.9400024 1.1500244.6699829-.9000244.1000366-2.2999878-.6400146-3.8599854 0 0 0 0 0-.0100098 0 0-.0099487 0-.0099487-.0100098-.4400024-.9299927-.9500122-1.9199829-1.2800293-2.8900146-.8800049-2.6099834 1.6400146-1.7599468 1.6400146-1.7599468 1.8399658.9099712 6.4199829 2.1099834 6.4199829 2.1099834s14.4500121-1.2900391 14.5999755-1.2900391c.0200195 0 .3600464.1800537.9200439.4900513.0899658.1999512.1699829.3999634.25.6199951.4299927 1.2199707.6099854 2.7799683-.2800292 3.8999634z" fill="#eeecdd"/></g><g fill="#7da715"><path d="m16.0088634 46.1854095-2.8499746-11.5100098c.0099487-.1900024.0499878-.3800049.0999756-.5700073 1.6348877 3.1086312 2.5804443 7.0982667 2.749999 12.0800171z"/><path d="m5.9003558 37.4527435s-.0555758 7.3421631 5.0249171 10.0918541c5.080493 2.7496872 9.1909876 1.3371582 9.1909876 1.3371582l.6480598.3627434s-3.022974 1.7578049-9.0385981-.5546951-5.8253664-11.2370606-5.8253664-11.2370606z"/><path d="m21.5588512 61.7853851c-1.2600098-.6699829-2.5200195-1.6499634-3.2600098-2.3899536-1.3899536-1.3900146-2.999999-1.5499878-3.7999868-1.1799927-.1900024.0799561-.2799683.2599487-.3099976.4899902-.0100098-.0200195-.0200195-.0300293-.0200195-.0300293s-1.3099976-3.789978-2.3199463-6.0299683h.0199585c.8099976-.0800171 1.6199951.2299805 2.1199951.8800049 2.3500357 3.0499879 7.0400382 7.8999635 7.5700064 8.2599488z"/><path d="m25.1663952 58.0199165v.0057297c-.0200195.1459808-.0744209.2776489-.1774578.392128-.7813873.872982-3.2944508-.6497192-4.496582-1.4626045-.1000004-.0698013-.6781807-.4733696-.5781803-.4035683-2.115839-2.2330666-6.2929659-6.6416206-6.1481056-6.4887352 0 0 1.2221861.3320313 2.8450584 1.6057358 1.6200428 1.2736893 8.5552673 6.2568741 8.5552673 6.3513145z"/><path d="m23.9499397 54.0213623c-.8357887-.0486526-1.5971222.0801544-1.5971222.0801544l-5.2922974-4.2561836s1.3938808-.0515175 3.0568638 1.1477661c1.0103818.7270241 2.6762314 2.0779953 3.8325558 3.0282631z"/></g><path d="m33.3688507 38.7253876-.2600098 8.9900513c-4.9699726-.3699951-10.0999775-2.4800415-10.0999775-2.4800415-.0999756 0-.0100098-.4299927.0700073-1.3800049 2.8099976 1.5400391 4.5499878-.3399658 5.3300171-2.1399536.8599854-1.960022 4.9599629-2.9900513 4.9599629-2.9900513z" fill="#d6d2c8"/><path d="m46.7988434 56.7253876c-1.2910194.0876198-5.5537415-1.2005196-6.7399902-1.5299683.0100098.0200195.0300293.039978.0499878.0800171h.0100098c1.5921898 2.2814522 2.2667084 3.2531433 2.3200073 3.3299561.7800293 1.1300049.3300171 1.6600342-1.2399902 1.3699951-1.5700073-.289978-4.7800293-5.0299683-5.8800049-6.6299438-1.1099854-1.6000366-6.3099995-3.1100464-6.8800068-8.2300415-.5800171-5.1199951 8.1400166-7.7299805 8.1400166-7.7299805 1.5899658-.2700195 2.8999634-.2700195 3.9400024-.0700073 0 0 .0100098 0 .0299683.0100098 3.0200195.5800171 3.75 2.8200073 2.5800171 4.5700073-1.5800171 2.3599854-7.8400269 4.6199951-7.8400269 4.6199951s3.7600098-.1500244 4.2600098-.5c.5-.3599854 2.6799927-1.1500244 3.0400391.1699829.3599854 1.3300171-2.6600342 2.7700195-2.6600342 2.7700195s6.9400024.1900024 7.9700317.289978c1.039978.1000366 1.2000122 1.4700317.6099854 2.2000122s-4.6900024.7299805-4.7399902.7299805c0 .0300293 4.8399658 2.5499878 5.0599976 3.1500244.2199705.5899658-.5700075 1.3200073-2.0300295 1.3999634z" fill="#b3cd46"/></g><path d="m66.188858 33.3154144s.4500122 3.210022-2.9000244 4.0499878c-3.3499756.8400269-14.4799805-2.8399658-16.7799683-3.7099609-2.210022-.8300171-2.7999878 2.1199951-2.8400269 2.3499756 0 0-.0099487 0-.0099487-.0100098-.4400024-.9299927-.9500122-1.9199829-1.2800293-2.8900146-.8800049-2.6099834 1.6400146-1.7599468 1.6400146-1.7599468 1.8399658.9099712 6.4199829 2.1099834 6.4199829 2.1099834s14.4500123-1.2900391 14.5999757-1.2900391c.0200195 0 .3600464.1800537.9200439.4900513.0899658.1999512.1699829.3999634.25.6199951z" fill="#d6d2c8"/><path d="m60.2688751 36.9253998c-3.7999878-.1499634-9.710022-2.5499878-13.25-4.1599731-1.8099976-.8099957-3-1.419981-3-1.419981 8.0999756 2.5799541 15.8499756 1.1899395 20.6400146-.8200073.0099487-.0100098.0099487-.0100098.0099487-.0100098.6300049.8099976 1.1700439 1.6400127 1.4500122 2.5199566.0000001-.0000001 1.5499879 4.1700439-5.8499755 3.8900146z" fill="#ec5b60"/><path d="m64.6588898 30.5254383c.678833 1.5338688-4.9221802 7.2311039-17.6400146 2.2399883-1.8099976-.8099957-3-1.419981-3-1.419981 8.0999755 2.5799542 15.8499755 1.1899395 20.6400146-.8200073z" fill="#c2272b"/><g><path d="m54.2275429 20.292223c-2.4127197-.2777138-4.5066528 1.3358173-4.6627998 3.6126518-.1555099 2.2675304 1.686039 4.3340511 4.0987587 4.6117649 2.4127197.2777119 4.506649-1.3358192 4.662159-3.6033497.1561507-2.2768345-1.6853982-4.3433552-4.0981179-4.621067z" fill="#4d9031"/><path d="m54.5472298 20.3290195c-2.2366409-.2574463-4.1777534 1.2383289-4.322506 3.348999-.1441612 2.102047 1.5629883 4.0177517 3.7996292 4.2751961 2.2366371.2574463 4.1777534-1.2383289 4.3219147-3.3403759.1447525-2.1106681-1.5624008-4.0263729-3.7990379-4.2838192z" fill="#fff"/><path d="m54.6918678 21.3551979c-1.6098022-.1852932-3.0069084.8912792-3.1110916 2.4104176-.1037598 1.5129318 1.1249504 2.8917465 2.7347565 3.0770416s3.0069084-.8912792 3.1106644-2.404211c.104187-1.5191384-1.1245232-2.8979531-2.7343293-3.0832482z" fill="#5c290e"/><path d="m55.3101654 21.6774693c-1.131012-.1301842-2.1125832.6261921-2.1857834 1.6935024-.0728989 1.062952.7903671 2.0316734 1.9213753 2.1618576 1.131012.1301842 2.1125832-.6261921 2.185482-1.6891422.0732002-1.0673104-.7900657-2.0360337-1.9210739-2.1662178z" fill="#7d421a"/><path d="m57.0986595 24.6665039s-.6896057-.3691559-.9300537-.6716022c-.2404518-.3024445-1.0230141-.8763008-1.6628647-.792614-.6398544.0836868-1.9072266 1.0565434-2.7069626.8050461 0 0 .2480278.3163185 1.0498276.221077 0 0 .9740944.8097076 1.7951088.7660046.8210106-.0437051 1.6592369-.4657556 2.4549446-.3279115z"/><path d="m54.2315483 24.1562729c.0035629.2327728.207592.4395695.4622917.4531727.268116.0143204.4662247-.1709976.4626617-.4037704s-.2076721-.4394989-.4757919-.4538193c-.2546997-.0136033-.4527244.1716442-.4491615.404417z" fill="#fff"/></g><path d="m40.1188507 55.2754364s0 .0099487.0100098.0199585c0 0-.1300049-.039978-.0200195-.0199585z" fill="#7da715"/><path d="m46.7988434 56.7253876c-.5899658.0400391-1.8299561-.2099609-3.0899658-.5299683 2.5199585.3900146 4.0499878-.5100098 4.0499878-.5800171 0-.0899658-4.25-3.5100098-4.25-3.5100098s4.3800049-1.1199951 4.5999756-1.9699707c.2200317-.8500366-8.4599609-.3599854-8.8999634-1.1300049-.4400024-.7600098 2.8999634-2.0200195 2.9799805-2.6500244s-2 .1300049-3.5499878.6500244c-1.5599976.5200195-4.3599854-.4099731-4.3599854-.4099731s6.7599487-3.3100586 7.9099731-5.8600464c1.0800171-2.3999634-1.3399658-3.3099976-1.6400146-3.4099731 3.0200195.5800171 3.75 2.8200073 2.5800171 4.5700073-1.5800171 2.3599854-7.8400269 4.6199951-7.8400269 4.6199951s3.7600098-.1500244 4.2600098-.5c.5-.3599854 2.6799927-1.1500244 3.0400391.1699829.3599854 1.3300171-2.6600342 2.7700195-2.6600342 2.7700195s6.9400024.1900024 7.9700317.289978c1.039978.1000366 1.2000122 1.4700317.6099854 2.2000122s-4.6900024.7299805-4.7399902.7299805c0 .0300293 4.8399658 2.5499878 5.0599976 3.1500244.2199706.5899659-.5700074 1.3200074-2.0300294 1.3999635z" fill="#e3f879"/><g fill="#7ca817"><ellipse cx="35.405" cy="40.473" rx="1.584" ry=".665" transform="matrix(.927 -.375 .375 .927 -12.59 16.222)"/><ellipse cx="17.061" cy="36.338" rx=".513" ry="1.221" transform="matrix(.893 -.451 .451 .893 -14.549 11.593)"/><ellipse cx="18.871" cy="46.661" rx="1.219" ry=".508" transform="matrix(.279 -.96 .96 .279 -31.205 51.74)"/><ellipse cx="8.829" cy="42.118" rx=".508" ry="1.219" transform="matrix(.886 -.463 .463 .886 -18.507 8.882)"/><ellipse cx="36.948" cy="51.826" rx=".513" ry="1.221" transform="matrix(.617 -.787 .787 .617 -26.633 48.907)"/></g><g opacity=".4"><path d="m10.3795795 33.914711c-.704834-.1979942-1.3699951-.3523788-1.8877563-.2814293-.4825945.0758514-.3725224-.0719376-.556397 2.7833786-.0413818.6757126-.1057739 1.3646393-.2773438 2.0888367-1.3641934-2.1260147-1.6345724-6.4702263.9042974-5.9582329.8613892.1743584 1.4581299.7199898 1.8171997 1.3674469z" fill="#fff"/></g><g opacity=".4"><path d="m30.788332 44.5211182c.0939293 1.7279434.78759 2.5378952 1.7940044 3.9425774.3216553.4111061.6566772.8355484.9631958 1.3813171-.6142578-.0505981-1.1744995-.2569504-1.6853619-.5615807-2.3080501-1.5017471-2.1987418-3.9444542-1.0718383-4.7623138z" fill="#fff"/></g><ellipse cx="51.334" cy="42.152" fill="#7ca817" rx=".776" ry=".326" transform="matrix(.21 -.978 .978 .21 -.665 83.481)"/></g><g><path d="m50.6279984 18.8264885c.1174202.4505386-.6717033 1.0496445-1.762558 1.3381386-1.0908508.2884941-2.6300163-.1478462-2.1877556-.2934074.9888306-.3254604 2.8014526-.8088398 1.7625732-1.3381386-1.0053711-.5122204 2.070324-.1571312 2.1877404.2934074z" fill="#4d9031"/></g><g><ellipse cx="37.655" cy="22.37" fill="#4d9031" rx="2.562" ry="1.057" transform="matrix(.842 -.54 .54 .842 -6.118 23.862)"/></g><g><ellipse cx="32.151" cy="32.423" fill="#4d9031" rx="2.042" ry=".843" transform="matrix(.872 -.489 .489 .872 -11.753 19.876)"/></g><g><path d="m32.0166283 19.3669071c.1825218.7098522-1.8647041.6058884-3.3290558 1.5884666-1.5051365.9083023-2.0328102 2.0723991-2.6937866 2.1396847-.5947514.1894569-1.2308769-1.7474365.763443-3.5723953 2.0451412-1.8510456 5.1946296-.9527836 5.2593994-.155756z" fill="#4d9031"/></g><g><ellipse cx="21.367" cy="30.181" fill="#4d9031" rx=".843" ry="2.042" transform="matrix(.108 -.994 .994 .108 -10.947 48.161)"/></g></g><g fill="#4d9031"><path d="m63.7788849 17.495409c-.4200439-.3399658-1.0200195-.6799927-1.8699951-1-2.8400269-1.0599985-4.7600098.3800049-4.9700317.5500488.2000122-.25 2.1900024-2.5200205 4.8800049-1.6600351 1.2199706.3900147 1.7600097 1.250001 1.9600219 2.1099863z"/><path d="m46.7088776 15.1954203s-1.008049 1.2297716-5.9992638.4468355c-3.9992828-.6273384-7.3237038-4.4444904-14.0536842.6654949-6.4400024 4.8800049-9.9770832 9.2876949-10.2570515 9.7176876 1.8699951-3.2800293 4.9500122-7.2700195 9.4299927-10.5900278 9.2399921-6.8800049 16.2600116.4800415 20.8800068-.2399902z"/></g></g></svg>