<svg id="Layer_1" enable-background="new 0 0 500 500" viewBox="0 0 500 500" xmlns="http://www.w3.org/2000/svg"><g><path d="m374.337 443.671h31.412s3.66-189.979 34.156-293.16c0 0-17.21 45.745-27.665 69.634-10.456 23.889-41.633 144.625-37.903 223.526z" fill="#54a83e"/><path d="m357.563 407.191 16.265 32.022c0-75.225 23.889-230.291 23.889-230.291-26.938 51.297-40.154 115.42-40.154 198.269z" fill="#419a3a"/><path d="m300.636 228.277c16.773 43.204 50.828 102.672 50.828 220.085h26.601s-6.27-141.81-77.429-220.085z" fill="#5bac40"/><path d="m281.074 428.795c3.806-25.669-3.31-144.098-3.31-144.098s17.08 41.171 19.722 86.916c2.642 45.744-16.412 57.182-16.412 57.182z" fill="#479f3b"/><path d="m160.888 451.479 34.929-4.295s-29.527-147.145 11.452-238.261c0 0-56.774 60.657-46.381 242.556z" fill="#3d9839"/><path d="m234.666 443.671s-6.939-218.149 18.319-300.587c25.259-82.438 65.44-115.828 65.44-115.828s-56.028 36.786-78.1 126.77c-22.072 89.985-24.139 289.644-24.139 289.644h18.48z" fill="#419a3a"/><path d="m226.288 451.479 26.697-2.597s-8.698-118.625 6.016-175.769c14.715-57.144 35.654-71.488 38.484-135.752 0 0-24.229 65.812-35.601 88.495s-33.22 84.057-35.596 139.11c-2.375 55.053 0 86.513 0 86.513z" fill="#51a53e"/><path d="m255.04 451.479h26.034s.106-101.637-19.189-156.533c-19.295-54.897-32.135-103.382-35.596-151.862 0 0-24.447 61.311 2.718 142.241 27.165 80.929 26.033 166.154 26.033 166.154z" fill="#54a83e"/><path d="m124.877 422.002c4.238-36.031 5.091-152.524 40.745-236.849 0 0 4.115 140.451-4.734 194.732s-6.585 76.934-6.585 76.934l-29.164-.005z" fill="#3c8f36"/><path d="m179.77 456.815c2.264-36.796-5.093-210.54-5.093-260.342 0-49.803 13.016-88.287 13.016-88.287s9.258 114.895 16.797 174.315c7.539 59.419-2.648 172.041-2.648 172.041z" fill="#5bac40"/><path d="m58.093 95.169s23.014-59.646 28.302-56.594c5.287 3.053 36.147 75.27 48.349 159.029s13.9 259.21 13.9 259.21h16.978s-2.832-224.122-33.392-328.821c-30.56-104.699-42.823-100.281-49.123-93.981-6.3 6.299-16.525 32.294-25.014 61.157z" fill="#419a3a"/><path d="m417.442 431.015c12.02-44.219 30.414-66.049 30.414-66.049s-13.206 64.448-13.206 76.854c0 0 9.604-31.214 21.21-42.819 0 0-13.606 30.79-13.606 57.814h-30.014z" fill="#86c84b"/><path d="m211.047 408.667c10.792-97.282 31.062-153.642 75.557-192.699 0 0-44.495 61.304-47.461 122.113-2.966 60.81-1.977 123.691-1.977 123.691h-26.119z" fill="#78bd44"/><path d="m105.398 296.214c4.269-79.5 28.812-159 55.49-196.882 0 0-38.323 104.043-31.967 205.952s5.823 146.194 5.823 146.194l-5.823-3.362z" fill="#65b343"/><path d="m109.667 280.061c-20.275-64.174-62.216-136.977-62.216-136.977 9.815 20.275 38.205 137.124 55.078 196.348l22.61 117.382h9.604c0 .001-4.801-112.58-25.076-176.753z" fill="#7fc449"/><path d="m127.807 451.479c-6.936-36.816-40.017-98.708-64.043-117.916s-23.377-17.392-13.323-2.668c37.218 54.502 40.737 62.656 52.088 108.845l4.469 11.738c0 .001 27.745 36.816 20.809.001z" fill="#6fb945"/><path d="m59.873 461.773c-2.194-13.714-8.578-27.223-24.136-36.205 0 0 23.039 2.194 35.656 36.205z" fill="#8dcd4c"/><path d="m85.063 463.81c-5.823-21.758-24.474-70.031-24.474-70.031s34.559 44.982 39.496 68.57z" fill="#8dcd4c"/><path d="m96.821 466.161c1.02-13.348 2.195-60.89-19.199-89.963 0 0 21.394 21.394 29.622 52.661 8.228 31.268 6.583 38.948 6.583 38.948z" fill="#79c047"/><path d="m111.632 472.195c-.549-24.685-3.291-115.746-41.142-174.99-.549-15.359 25.782 2.194 45.53 71.312s15.908 104.226 15.908 104.226z" fill="#51a53e"/><path d="m102.529 330.509c-15.891-28.046-23.313-33.304-32.038-33.304s-35.675 6.635-45.44 59.754c0 0-1.953-40.621 18.357-67.181 20.311-26.558 44.031 6.078 59.121 40.731z" fill="#83c952"/><path d="m144.715 461.773c-2.472-72.77-14.127-117.759 16.173-198.838s55.266-118.9 61.94-125.574c0 0-20.77 43.776-36.09 104.81-30.652 122.114-16.809 221.064-16.809 221.064z" fill="#7cc248"/><path d="m197.614 463.235c-1.977-24.793-8.899-175.581 28.674-261.604 0 0-5.933 75.641-5.933 123.597s-9.303 138.007-9.303 138.007z" fill="#7fc449"/><path d="m244.086 456.815c0-44.575 17.798-142.525 17.798-132.576 0 2.472-3.46 128.235-3.46 137.534l-14.337 1.462v-6.42z" fill="#83c64a"/><path d="m275.233 456.815c3.955-94.508 14.337-213.085 110.248-313.731 0 0-47.956 78.322-62.293 160.391-14.337 82.068-14.337 150.293-14.337 150.293z" fill="#86c84b"/><path d="m312.806 456.815c2.966-59.407 7.91-138.014 65.259-230.959 0 0-22.248 62.787-30.158 100.855s-21.753 106.948-21.753 130.104z" fill="#89cb4b"/><path d="m466.07 279.695c-3.74.041-11.873-1.911-11.873-1.911s-.692-.041-1.952.081c-5.083.529-19.802 4.147-39.564 27.081-24.723 28.667-40.54 68.719-45.989 149.312l-21.266 2.561c14.353-98.972 31.147-121.214 53.918-148.905 10.531-12.849 22.201-22.486 33.018-28.341h.041c.61-.366 1.22-.691 1.829-.976 7.685-3.863 14.964-5.774 20.982-5.449h.041c3.985.854 7.238 2.888 9.799 5.449.366.325.691.691 1.016 1.098z" fill="#65b343"/><path d="m468.917 326.985c1.911-21.388-2.847-32.326-8.864-42.044-2.033-3.294-4.717-5.652-7.808-7.075-5.408-2.521-11.955-2.196-18.013.732-.609.285-1.22.61-1.829.976 9.23-6.303 16.834-7.686 22.812-6.425h.041c3.985.854 7.238 2.888 9.799 5.449.366.325.691.691 1.016 1.098 5.653 6.547 8.051 17.607 8.824 30.497 1.179 19.76-7.93 38.139-5.978 16.792z" fill="#89cb4b"/><path d="m401.434 456.815c0-6.858 3.201-107.036 44.82-153.857 0 0-8.804 18.408-12.006 50.423-3.201 32.014-18.008 103.434-18.008 103.434z" fill="#8dcd4c"/></g></svg>