<svg id="Layer_1" enable-background="new 0 0 512 512" viewBox="0 0 512 512" xmlns="http://www.w3.org/2000/svg"><g id="XMLID_1_"><g id="XMLID_407_"><path id="XMLID_4180_" d="m406.1 430.2s30.9 6.4 30.9-24c0-53.3-33.2-29.2-33.2-29.2z" fill="#ffcb5c"/><path id="XMLID_4179_" d="m181.8 507.1c-122.8 0-56.6-60.2-56.6-60.2h56.8z" fill="#ffb30f"/><path id="XMLID_4178_" d="m285.7 234.9s121.3 69.3 121.3 170.6-38.5 101.4-64.5 101.4-54.5-1-54.5-21 19-30 19-30l-17.7-12.7c-31.6 38-51.6 63.7-107.6 63.7s-17.8-34.7-17.8-34.7-68.2-25.3-68.2-94.3c0-60 22.3-89.5 22.3-89.5z" fill="#ffe3a8"/><g fill="#ffcb5c"><path id="XMLID_4177_" d="m118 288.4s-22.3 47.8 61.7 47.8c150.3 0 106-101.3 106-101.3z"/><path id="XMLID_4176_" d="m289.2 443.2c-18.3-15.6-33.4-62.8-3.3-92.9 0 0-59.5 19.7-37.9 136.5 14.4-11 26.6-26 41.2-43.6"/><path id="XMLID_4175_" d="m201 443.2s-26 16.7-37.1 29l-1.6-.6c-10.2-4.3-66.6-30.9-66.6-93.6.4.9 29.4 64 105.3 65.2"/></g><path id="XMLID_4174_" d="m154 160.9s11.5-42.4 5-69.8-37.6-86.2-66.1-86.2c-28.6 0-18.5 59.3 0 95.7s61.1 60.3 61.1 60.3" fill="#ffe3a8"/><path id="XMLID_4173_" d="m75.3 26.8c-2 20.6 6.2 51.5 17.6 73.8 12 23.5 34.1 41.9 48.1 51.9v-22.7c-4.9-82.5-62.2-101.9-65.7-103" fill="#e25d55"/><path id="XMLID_4172_" d="m218 160.9s-11.5-42.4-5-69.8 37.6-86.2 66.1-86.2c28.6 0 18.5 59.3 0 95.7s-61.1 60.3-61.1 60.3" fill="#ffe3a8"/><path id="XMLID_4171_" d="m296.7 26.8c2 20.6-6.2 51.5-17.6 73.8-12 23.5-34.1 41.9-48.1 51.9v-22.7c5-82.5 62.1-101.9 65.7-103" fill="#e25d55"/><path id="XMLID_4170_" d="m286 243.9c0 35-31 55-100 55s-100-20-100-55 11-36 25-66 19-59 75-59 61 29 75 59 25 31 25 66" fill="#ffe3a8"/><path id="XMLID_4168_" d="m149 195.9c0-8.3-4.5-15-10-15s-10 6.7-10 15 4.5 15 10 15 10-6.7 10-15" fill="#b24e10"/><path id="XMLID_4167_" d="m243 195.9c0-8.3-4.5-15-10-15s-10 6.7-10 15 4.5 15 10 15 10-6.7 10-15" fill="#b24e10"/><path id="XMLID_4166_" d="m186 244.8c-.9 0-1.9-.3-2.7-.8l-15-9.8 5.4-8.4 12.3 8 12.3-8.1 5.5 8.4-15 9.9c-.9.6-1.9.8-2.8.8" fill="#ffb30f"/><path id="XMLID_4165_" clip-rule="evenodd" d="m181 239.9h10v18h-10z" fill="#ffb30f" fill-rule="evenodd"/><path id="XMLID_4164_" d="m196.1 275.4c-4.4 0-7.6-1.9-9.9-4.5-2.3 2.6-5.7 4.5-10.4 4.5-13.3 0-19.3-15.6-19.5-16.2l9.4-3.5c0 .1 3.9 9.8 10.2 9.8 5 0 5.1-8 5.1-8.1 0-2.7 2.2-4.8 4.8-4.9 2.7-.1 4.9 1.9 5.1 4.6 0 .1.9 8.4 5.2 8.4 4.9 0 9.3-6.5 10.4-8.7l8.9 4.5c-.2.4-7.2 14.1-19.3 14.1" fill="#ffb30f"/><path id="XMLID_4163_" d="m307 455.9s-9.1 4.8-14.7 14.4c46.8 11.4 70.2-17.4 70.2-17.4s-41.5 13-55.5 3" fill="#ffcb5c"/></g></g></svg>