<svg id="Layer_1" enable-background="new 0 0 512 512" height="512" viewBox="0 0 512 512" width="512" xmlns="http://www.w3.org/2000/svg"><g><path d="m468.082 159.138c-7.01-37.357-30.387-74.749-69.481-111.138-27.143-25.265-52.684-41.21-53.758-41.877-19.117-11.864-44.237-5.964-56.1 13.178-11.858 19.135-5.986 44.258 13.118 56.127 19.948 12.494 78.445 57.377 86.155 98.897 2.381 12.822-.52 23.821-9.403 35.663-22.263 29.674-50.962 25.763-115.998 8.899-30.895-8.01-62.84-16.29-94.858-15.327-41.809 1.257-75.648 18.443-100.577 51.082-17.779 23.276-26.544 51.907-25.349 82.797 1.066 27.565 10.067 55.646 26.03 81.209 20.385 32.642 51.389 59.445 87.302 75.469 11.956 5.335 24.41 9.487 37.22 12.441 30.367 7.002 62.764 7.278 95.477.66 22.057-4.463 36.333-25.974 31.884-48.048-4.448-22.074-25.937-36.35-47.993-31.888-67.023 13.56-113.571-17.909-134.785-51.881-16.253-26.027-18.238-53.994-5.058-71.25 20.235-26.493 47.716-22.524 110.24-6.316 31.785 8.24 64.645 16.758 97.899 15.456 43.029-1.686 77.925-19.974 103.719-54.356 22.525-30.025 30.933-64.535 24.316-99.797z" fill="#eaa998"/><g fill="#e49280"><path d="m136.965 375.4c-16.253-26.027-18.238-53.994-5.058-71.25 7.51-9.833 16.025-15.462 26.953-17.834-27.852-3.891-44.452.282-57.858 17.834-13.18 17.256-11.195 45.223 5.058 71.25 19.541 31.291 60.576 60.458 119.309 54.268-42.346-4.73-72.497-28.796-88.404-54.268z"/><path d="m271.75 427.281c-3.069.621-6.094 1.145-9.076 1.582 12.962 4.668 23.241 15.804 26.164 30.307 4.448 22.074-9.827 43.586-31.884 48.048-10.514 2.127-20.994 3.532-31.386 4.24 20.33 1.405 41.243.018 62.291-4.24 22.057-4.463 36.333-25.974 31.884-48.048-4.448-22.075-25.937-36.351-47.993-31.889z"/><path d="m468.082 159.138c-7.01-37.357-30.387-74.75-69.481-111.138-27.143-25.265-52.684-41.21-53.758-41.877-11.529-7.155-25.238-7.84-36.909-3.065 2.049.844 4.059 1.858 6.004 3.065 1.074.666 26.615 16.612 53.758 41.877 39.094 36.389 62.471 73.781 69.481 111.138 6.617 35.262-1.792 69.772-24.318 99.797-24.124 32.155-56.21 50.23-95.464 53.816 7.525.603 15.076.836 22.65.539 43.029-1.686 77.925-19.974 103.719-54.356 22.526-30.025 30.935-64.534 24.318-99.796z"/></g><g fill="#dd7f66"><path d="m397.9 47.36-54.19 61.02c-3.75-3.52-7.51-6.86-11.19-10l54.17-61c3.66 3.13 7.42 6.46 11.21 9.98z"/><path d="m444.25 101.43-67.16 46.34c-2.54-4.17-5.41-8.3-8.51-12.35l67.16-46.35c3.03 4.11 5.87 8.23 8.51 12.36z"/><path d="m388.66 186.21c.34-3.84.12-7.77-.64-11.89-.19-1.01-.41-2.03-.67-3.05l81.5-7.55c.76 5 1.22 9.99 1.37 14.94z"/><path d="m449.66 250.46c-1.84 2.86-3.81 5.68-5.9 8.47-.94 1.25-1.9 2.49-2.87 3.7l-66.22-47.83c1.35-1.49 2.65-3.1 3.94-4.81 1.87-2.49 3.47-4.93 4.81-7.37z"/><path d="m382.22 305.42c-4.67 1.67-9.46 3.07-14.39 4.21h-.01l-22.87-78.51c5.22-.8 9.97-2.23 14.35-4.38z"/><path d="m316.73 230.68-13.36 80.53c-4.95-.69-9.88-1.51-14.8-2.45l13.37-80.57c5.24 1.03 10.16 1.87 14.79 2.49z"/><path d="m260.04 218.23-20.2 79c-5.08-1.31-9.93-2.53-14.55-3.66l20.22-79.06c4.87 1.22 9.7 2.47 14.53 3.72z"/><path d="m192.3 204.48-5.18 81.48c-5.41-.67-10.38-1.01-14.97-.98l5.18-81.44c5 .12 9.99.44 14.97.94z"/><path d="m151.62 288.51c-4.65 1.85-8.84 4.47-12.71 7.97l-43.84-69.32c4.07-2.96 8.29-5.63 12.66-8.03z"/><path d="m128.13 310.18c-2.21 4.36-3.67 9.19-4.38 14.34l-78.41-23.8c1.17-4.9 2.63-9.69 4.37-14.36z"/><path d="m129.36 360.68-77.8 24.79c-1.74-4.73-3.25-9.5-4.54-14.29v-.01l77.81-24.79c1.03 4.7 2.53 9.5 4.53 14.3z"/><path d="m154.24 396.66-60.27 54.96c-3.53-3.57-6.9-7.26-10.11-11.07l60.3-54.99c3.03 3.81 6.39 7.54 10.08 11.1z"/><path d="m192.46 421.43-35.08 73.65h-.01c-.74-.31-1.48-.63-2.21-.96-3.83-1.71-7.61-3.54-11.32-5.5l35.08-73.65c4.28 2.39 8.79 4.56 13.54 6.46z"/><path d="m237.86 430.48-6.15 81.33c-5.02-.2-10.01-.58-14.96-1.12l6.15-81.32c4.82.63 9.81 1.01 14.96 1.11z"/></g></g></svg>